USFL
nRows=230
nColumns=2
inDegrees=yes
endheader
time	tib_ant_r	
3.22681	 65.769437	
3.26008	 65.758904	
3.29335	 65.783916	
3.32661	 65.790187	
3.35988	 65.786166	
3.39315	 65.795968	
3.42641	 65.809656	
3.45968	 65.788335	
3.49294	 65.795528	
3.52621	 65.788719	
3.55948	 65.793886	
3.59274	 65.810073	
3.62601	 65.804574	
3.65927	 65.829154	
3.69254	 65.832253	
3.72581	 65.808890	
3.75907	 65.815981	
3.79234	 65.799812	
3.8256	 65.783289	
3.85887	 65.766529	
3.89214	 65.751573	
3.9254	 65.780708	
3.95867	 65.775796	
3.99194	 65.792562	
4.0252	 65.787784	
4.05847	 65.794387	
4.09173	 65.812957	
4.125	 65.826289	
4.15827	 65.829462	
4.19153	 65.824147	
4.2248	 65.840280	
4.25806	 65.814227	
4.29133	 65.794332	
4.3246	 65.794946	
4.35786	 65.777447	
4.39113	 65.777838	
4.4244	 65.774226	
4.45766	 65.754247	
4.49093	 65.733741	
4.52419	 65.717016	
4.55746	 65.654536	
4.59073	 65.646470	
4.62399	 65.587024	
4.65726	 65.593114	
4.69052	 65.633649	
4.72379	 65.625713	
4.75706	 65.629371	
4.79032	 65.681611	
4.82359	 65.702341	
4.85685	 65.731732	
4.89012	 65.741014	
4.92339	 65.744858	
4.95665	 65.732724	
4.98992	 65.747983	
5.02319	 66.092151	
5.05645	 66.067541	
5.08972	 66.065580	
5.12298	 66.187117	
5.15625	 66.052095	
5.18952	 66.319566	
5.22278	 66.486953	
5.25605	 66.326072	
5.28931	 66.317026	
5.32258	 66.601842	
5.35585	 66.137283	
5.38911	 66.427504	
5.42238	 65.792914	
5.45565	 65.592532	
5.48891	 51.526258	
5.52218	 51.164708	
5.55544	 50.937666	
5.58871	 50.743190	
5.62198	 50.424431	
5.65524	 50.164430	
5.68851	 50.091509	
5.72177	 49.990306	
5.75504	 49.783729	
5.78831	 49.816983	
5.82157	 49.878995	
5.85484	 49.841220	
5.8881	 49.766261	
5.92137	 49.712988	
5.95464	 49.701963	
5.9879	 49.648924	
6.02117	 49.623712	
6.05444	 49.613353	
6.0877	 49.519910	
6.12097	 49.390057	
6.15423	 49.346082	
6.1875	 49.316939	
6.22077	 49.263423	
6.25403	 49.231991	
6.2873	 49.316495	
6.32056	 49.296995	
6.35383	 49.295831	
6.3871	 49.270402	
6.42036	 49.274616	
6.45363	 49.198246	
6.4869	 49.206237	
6.52016	 49.242020	
6.55343	 49.161784	
6.58669	 49.193427	
6.61996	 49.105007	
6.65323	 49.109573	
6.68649	 49.117698	
6.71976	 49.117472	
6.75302	 49.040233	
6.78629	 49.068864	
6.81956	 49.030334	
6.85282	 49.058094	
6.88609	 48.943424	
6.91935	 48.911582	
6.95262	 48.919215	
6.98589	 48.918956	
7.01915	 48.952338	
7.05242	 49.002959	
7.08569	 48.962247	
7.11895	 48.908087	
7.15222	 48.923744	
7.18548	 48.917325	
7.21875	 48.920109	
7.25202	 48.913585	
7.28528	 48.957211	
7.31855	 48.994834	
7.35181	 48.958491	
7.38508	 48.968598	
7.41835	 48.954229	
7.45161	 48.962501	
7.48488	 49.003099	
7.51815	 48.999045	
7.55141	 48.946122	
7.58468	 48.974432	
7.61794	 48.994194	
7.65121	 49.035841	
7.68448	 49.036697	
7.71774	 49.061880	
7.75101	 49.079670	
7.78427	 49.074000	
7.81754	 49.076270	
7.85081	 49.049430	
7.88407	 49.046044	
7.91734	 49.130043	
7.9506	 49.144857	
7.98387	 49.136838	
8.01714	 49.161907	
8.0504	 49.157161	
8.08367	 49.140474	
8.11694	 49.137447	
8.1502	 49.112699	
8.18347	 49.164840	
8.21673	 49.223824	
8.25	 49.192356	
8.28327	 49.255618	
8.31653	 49.254832	
8.3498	 49.258703	
8.38306	 49.270859	
8.41633	 49.271915	
8.4496	 49.248337	
8.48286	 49.265301	
8.51613	 49.258510	
8.5494	 49.256667	
8.58266	 49.254786	
8.61593	 49.227210	
8.64919	 49.250413	
8.68246	 49.263544	
8.71573	 49.279035	
8.74899	 49.288598	
8.78226	 49.239050	
8.81552	 49.271806	
8.84879	 49.303554	
8.88206	 49.303142	
8.91532	 49.298707	
8.94859	 49.292628	
8.98185	 49.355804	
9.01512	 49.430248	
9.04839	 49.413057	
9.08165	 49.418010	
9.11492	 49.406206	
9.14819	 49.387444	
9.18145	 49.442335	
9.21472	 49.546624	
9.24798	 49.536014	
9.28125	 49.579998	
9.31452	 49.571864	
9.34778	 49.543310	
9.38105	 49.567458	
9.41431	 49.568476	
9.44758	 49.593997	
9.48085	 49.627278	
9.51411	 49.642055	
9.54738	 49.614914	
9.58065	 49.584116	
9.61391	 49.564269	
9.64718	 49.663271	
9.68044	 49.770417	
9.71371	 49.771819	
9.74698	 49.859104	
9.78024	 49.867127	
9.81351	 49.958968	
9.84677	 50.017852	
9.88004	 49.978540	
9.91331	 50.077285	
9.94657	 50.147127	
9.97984	 54.586746	
10.0131	 54.689715	
10.0464	 54.254121	
10.0796	 53.902040	
10.1129	 53.723633	
10.1462	 65.947309	
10.1794	 65.806631	
10.2127	 70.645549	
10.246	 70.591189	
10.2792	 70.937515	
10.3125	 71.139012	
10.3458	 71.247498	
10.379	 71.655574	
10.4123	 71.822395	
10.4456	 71.796487	
10.4788	 71.674652	
10.5121	 71.759214	
10.5454	 71.782977	
10.5786	 71.909759	
10.6119	 71.976142	
10.6452	 71.896773	
10.6784	 71.876358	
10.7117	 71.874201	
10.745	 71.812611	
10.7782	 71.824730	
10.8115	 71.800520	
10.8448	 71.774915	
